<?xml version="1.0" standalone="no"?>
<!DOCTYPE svg PUBLIC "-//W3C//DTD SVG 20010904//EN"
 "http://www.w3.org/TR/2001/REC-SVG-20010904/DTD/svg10.dtd">
<svg version="1.0" xmlns="http://www.w3.org/2000/svg"
 width="812.000000pt" height="812.000000pt" viewBox="0 0 812.000000 812.000000"
 preserveAspectRatio="xMidYMid meet">
<metadata>
Created by potrace 1.11, written by Peter Selinger 2001-2013
</metadata>
<g transform="translate(0.000000,812.000000) scale(0.100000,-0.100000)"
fill="#000000" stroke="none">
<path d="M3930 8084 c-254 -89 -688 -236 -709 -240 -13 -3 -37 -12 -52 -20
-16 -8 -31 -14 -34 -14 -6 -1 -3 1 -200 -65 -93 -32 -174 -58 -180 -59 -5 -1
-14 -4 -20 -8 -5 -3 -46 -17 -90 -31 -44 -14 -154 -51 -245 -82 -91 -31 -169
-58 -175 -59 -5 -2 -17 -6 -25 -9 -19 -7 -161 -57 -175 -61 -5 -2 -23 -6 -40
-11 -16 -4 -34 -10 -40 -14 -5 -3 -14 -6 -20 -8 -17 -3 -609 -203 -630 -213
-15 -6 -276 -94 -523 -175 -7 -3 -14 -4 -17 -5 -3 0 -19 -7 -35 -15 -17 -9
-30 -13 -30 -10 0 3 -13 -1 -30 -10 -16 -9 -30 -12 -30 -8 0 4 -5 2 -12 -5 -7
-7 -20 -12 -30 -12 -10 0 -18 -4 -18 -9 0 -16 374 -389 397 -395 11 -4 29 -23
38 -44 10 -20 28 -59 41 -86 13 -28 24 -56 24 -63 0 -7 5 -13 10 -13 6 0 10
-9 10 -20 0 -11 5 -20 10 -20 6 0 10 -6 10 -13 0 -8 14 -42 31 -78 17 -35 46
-95 64 -134 18 -38 48 -104 68 -145 60 -129 106 -230 106 -233 0 -1 11 -24 24
-52 24 -47 76 -158 154 -325 19 -41 57 -121 84 -178 27 -57 49 -105 49 -106 0
-2 28 -62 61 -132 59 -123 82 -173 149 -319 16 -36 30 -70 30 -75 0 -6 5 -10
10 -10 6 0 10 -9 10 -19 0 -11 4 -22 9 -26 5 -3 15 -22 22 -43 6 -20 17 -44
25 -52 7 -8 13 -18 13 -22 1 -10 37 -88 87 -193 21 -44 39 -82 39 -85 1 -3 17
-39 37 -80 85 -180 108 -231 108 -240 0 -6 5 -10 10 -10 6 0 10 -6 10 -13 0
-7 11 -35 24 -63 14 -27 43 -89 66 -139 23 -49 52 -112 66 -140 13 -29 24 -57
24 -63 0 -7 5 -12 10 -12 6 0 10 -6 10 -13 0 -8 17 -49 39 -93 21 -43 46 -97
56 -119 20 -43 109 -232 144 -304 11 -25 21 -51 21 -58 0 -7 5 -13 10 -13 6 0
10 -4 10 -10 0 -10 24 -64 100 -226 23 -49 60 -127 82 -174 22 -47 62 -131 89
-188 27 -57 49 -105 49 -107 0 -2 32 -70 70 -151 39 -80 70 -148 70 -150 0 -1
27 -59 60 -129 33 -70 60 -131 60 -136 0 -5 5 -9 12 -9 6 0 8 -3 5 -7 -4 -3 3
-22 15 -42 13 -20 22 -37 20 -39 -2 -2 24 -60 103 -227 32 -67 76 -162 135
-290 36 -78 107 -229 156 -330 21 -44 38 -82 39 -85 1 -3 15 -35 33 -72 18
-38 46 -98 64 -135 18 -38 33 -70 34 -73 8 -26 49 -110 54 -110 4 0 17 24 30
52 13 29 42 94 66 143 23 50 58 124 77 165 19 41 53 113 75 160 22 47 56 121
77 165 20 44 47 101 60 126 13 26 21 49 18 53 -4 3 -1 6 5 6 7 0 12 4 12 9 0
9 34 85 117 261 77 161 93 198 93 209 0 6 5 11 10 11 6 0 10 9 10 20 0 11 4
20 9 20 5 0 12 11 15 25 4 14 26 67 50 118 24 50 71 150 105 221 34 70 61 130
61 132 0 2 24 54 54 116 89 186 133 282 140 306 4 12 12 22 17 22 5 0 9 6 9
14 0 7 27 72 61 142 33 71 69 149 80 174 11 25 25 52 30 60 5 8 12 22 15 30 3
8 16 38 29 65 13 28 37 79 53 115 17 36 51 110 78 165 26 55 48 102 49 105 5
15 51 114 187 400 45 94 68 145 73 160 1 3 25 55 54 115 52 108 90 189 136
290 13 28 42 91 66 140 23 50 43 92 44 95 1 3 20 44 43 93 23 48 41 88 41 90
0 1 11 25 24 52 23 46 90 189 139 295 11 25 24 52 29 60 5 8 12 22 16 30 15
37 55 124 103 225 28 61 74 160 102 220 27 61 54 117 59 125 5 8 14 26 20 40
5 14 21 48 34 75 13 28 40 86 60 130 21 44 58 123 82 175 25 52 53 113 63 135
10 22 41 87 68 145 27 58 62 133 78 168 18 39 34 62 44 62 9 0 88 73 176 161
87 89 174 176 192 193 47 45 44 54 -28 71 -3 1 -12 5 -20 8 -18 7 -520 177
-630 213 -41 14 -82 27 -90 31 -8 3 -20 7 -25 8 -10 2 -184 60 -215 72 -53 19
-836 285 -880 298 -3 1 -12 4 -20 7 -30 12 -203 70 -214 73 -6 1 -18 5 -26 8
-8 4 -136 48 -285 97 -148 50 -276 92 -283 95 -7 2 -13 4 -15 3 -1 -1 -12 4
-25 11 -13 7 -31 14 -40 16 -9 2 -91 28 -182 59 -308 105 -461 156 -468 155
-4 -1 -50 -16 -102 -35z"/>
</g>
</svg>
