<!DOCTYPE svg PUBLIC "-//W3C//DTD SVG 20010904//EN" "http://www.w3.org/TR/2001/REC-SVG-20010904/DTD/svg10.dtd">
<svg version="1.0" xmlns="http://www.w3.org/2000/svg" width="256px" height="256px" viewBox="0 0 2560 2560" preserveAspectRatio="xMidYMid meet">
<g id="layer1" fill="#878787" stroke="none">
 <path d="M1159 2417 c-77 -32 -111 -59 -154 -117 -46 -62 -65 -124 -65 -206 0 -98 30 -166 107 -241 62 -62 63 -63 63 -118 0 -35 -4 -55 -12 -55 -22 0 -106 61 -151 109 -67 72 -92 128 -112 254 -3 20 -10 37 -15 37 -6 0 -8 -54 -4 -143 l7 -142 -292 4 -291 3 0 -97 0 -98 -90 6 -90 7 0 -285 0 -285 90 0 90 0 0 -90 0 -90 290 0 290 0 0 -290 0 -290 90 0 90 0 0 -90 0 -90 280 0 280 0 0 90 0 90 90 0 90 0 0 290 0 290 291 0 290 0 -3 90 -3 90 93 0 92 0 0 285 0 285 -90 -7 -89 -6 -3 94 -3 94 -288 0 -289 0 2 130 c2 156 2 158 -9 151 -4 -3 -11 -32 -15 -63 -13 -115 -85 -227 -189 -294 -83 -54 -88 -52 -84 21 3 57 5 61 46 90 116 84 163 268 103 403 -29 66 -112 150 -175 178 -79 34 -186 37 -258 6z m109 -331 c56 -40 64 -30 60 73 -2 44 -1 81 2 81 3 0 16 -7 28 -16 32 -22 52 -67 52 -118 0 -36 -6 -52 -30 -79 l-30 -35 0 -241 0 -241 -75 0 -75 0 0 242 0 242 -26 27 c-50 52 -42 155 15 200 l26 21 5 -63 c5 -61 7 -64 48 -93z m324 -683 l3 -57 53 3 52 2 0 -46 0 -46 -55 6 -55 7 0 -61 0 -61 -40 0 -39 0 -3 58 -3 57 -52 -3 -53 -3 0 47 0 46 53 -4 52 -3 3 58 3 57 39 0 39 0 3 -57z m-414 -300 l-3 -48 53 -3 53 -3 -3 -37 -3 -37 -50 0 -50 0 0 -50 0 -50 -37 -3 -38 -3 0 56 0 57 -47 -4 -48 -3 -3 38 -3 37 50 0 51 0 0 50 0 50 41 0 41 0 -4 -47z m127 -543 c0 -33 2 -35 38 -38 31 -3 37 -7 37 -27 0 -20 -6 -24 -37 -27 -36 -3 -38 -5 -38 -38 0 -31 -3 -35 -25 -35 -22 0 -25 5 -28 38 -3 35 -5 37 -38 37 -30 0 -34 3 -34 25 0 22 4 25 35 25 33 0 35 2 35 33 0 40 7 49 35 45 16 -2 20 -10 20 -38z"/>
 <path d="M1240 1610 c-15 -28 4 -60 35 -60 31 0 50 32 35 60 -6 12 -21 20 -35 20 -14 0 -29 -8 -35 -20z"/>
 </g>

</svg>